<?xml version="1.0" encoding="UTF-8"?>
<svg width="22" height="22" viewBox="0 0 22 22" version="1.1" xmlns="http://www.w3.org/2000/svg">
 <defs>
  <style type="text/css">
   .ColorScheme-Text { color:#f0f0f0; fill:currentColor; }
   .ColorScheme-Highlight { color:#ff6b00; fill:currentColor; }
  </style>
 </defs>
 <g id="22-22-audio-volume-high">
  <rect width="22" height="22" opacity="0"/>
  <path class="ColorScheme-Text" d="M 4 8 L 4 14 L 7 14 L 12 18 L 12 4 L 7 8 Z M 15 6 C 16.5 7.5 16.5 14.5 15 16 C 15 16 16 15 16.5 13 C 17 11 17 11 16.5 9 C 16 7 15 6 15 6 Z M 18 3 C 20.5 5.5 20.5 16.5 18 19 C 18 19 19.5 17 20 14 C 20.5 11 20.5 11 20 8 C 19.5 5 18 3 18 3 Z"/>
 </g>
 <g id="22-22-audio-volume-medium">
  <rect width="22" height="22" opacity="0"/>
  <path class="ColorScheme-Text" d="M 4 8 L 4 14 L 7 14 L 12 18 L 12 4 L 7 8 Z M 15 6 C 16.5 7.5 16.5 14.5 15 16 C 15 16 16 15 16.5 13 C 17 11 17 11 16.5 9 C 16 7 15 6 15 6 Z"/>
 </g>
 <g id="22-22-audio-volume-low">
  <rect width="22" height="22" opacity="0"/>
  <path class="ColorScheme-Text" d="M 4 8 L 4 14 L 7 14 L 12 18 L 12 4 L 7 8 Z"/>
 </g>
 <g id="22-22-audio-volume-muted">
  <rect width="22" height="22" opacity="0"/>
  <path class="ColorScheme-Text" opacity="0.5" d="M 4 8 L 4 14 L 7 14 L 12 18 L 12 4 L 7 8 Z"/>
  <path class="ColorScheme-Highlight" d="M 15 8 L 19 14 M 19 8 L 15 14" stroke="#ff6b00" stroke-width="1.8" stroke-linecap="round"/>
 </g>
</svg>
